<svg height="1431.033203125" version="1.1" width="732.27734375" xmlns="http://www.w3.org/2000/svg" xmlns:xlink="http://www.w3.org/1999/xlink" style="overflow: hidden; position: relative;" viewBox="0 0 732.27734375 1431.033203125" preserveAspectRatio="xMidYMid meet"><desc style="-webkit-tap-highlight-color: rgba(0, 0, 0, 0);">Created with Raphaël 2.1.4</desc><defs style="-webkit-tap-highlight-color: rgba(0, 0, 0, 0);"><path stroke-linecap="round" d="M5,0 0,2.5 5,5z" id="raphael-marker-block" style="-webkit-tap-highlight-color: rgba(0, 0, 0, 0);"></path><marker id="raphael-marker-endblock33-obj30" markerHeight="3" markerWidth="3" orient="auto" refX="1.5" refY="1.5" style="-webkit-tap-highlight-color: rgba(0, 0, 0, 0);"><use xlink:href="#raphael-marker-block" transform="rotate(180 1.5 1.5) scale(0.6,0.6)" stroke-width="1.6667" fill="black" stroke="none" style="-webkit-tap-highlight-color: rgba(0, 0, 0, 0);"></use></marker><marker id="raphael-marker-endblock33-obj31" markerHeight="3" markerWidth="3" orient="auto" refX="1.5" refY="1.5" style="-webkit-tap-highlight-color: rgba(0, 0, 0, 0);"><use xlink:href="#raphael-marker-block" transform="rotate(180 1.5 1.5) scale(0.6,0.6)" stroke-width="1.6667" fill="black" stroke="none" style="-webkit-tap-highlight-color: rgba(0, 0, 0, 0);"></use></marker><marker id="raphael-marker-endblock33-obj32" markerHeight="3" markerWidth="3" orient="auto" refX="1.5" refY="1.5" style="-webkit-tap-highlight-color: rgba(0, 0, 0, 0);"><use xlink:href="#raphael-marker-block" transform="rotate(180 1.5 1.5) scale(0.6,0.6)" stroke-width="1.6667" fill="black" stroke="none" style="-webkit-tap-highlight-color: rgba(0, 0, 0, 0);"></use></marker><marker id="raphael-marker-endblock33-obj33" markerHeight="3" markerWidth="3" orient="auto" refX="1.5" refY="1.5" style="-webkit-tap-highlight-color: rgba(0, 0, 0, 0);"><use xlink:href="#raphael-marker-block" transform="rotate(180 1.5 1.5) scale(0.6,0.6)" stroke-width="1.6667" fill="black" stroke="none" style="-webkit-tap-highlight-color: rgba(0, 0, 0, 0);"></use></marker><marker id="raphael-marker-endblock33-obj34" markerHeight="3" markerWidth="3" orient="auto" refX="1.5" refY="1.5" style="-webkit-tap-highlight-color: rgba(0, 0, 0, 0);"><use xlink:href="#raphael-marker-block" transform="rotate(180 1.5 1.5) scale(0.6,0.6)" stroke-width="1.6667" fill="black" stroke="none" style="-webkit-tap-highlight-color: rgba(0, 0, 0, 0);"></use></marker><marker id="raphael-marker-endblock33-obj36" markerHeight="3" markerWidth="3" orient="auto" refX="1.5" refY="1.5" style="-webkit-tap-highlight-color: rgba(0, 0, 0, 0);"><use xlink:href="#raphael-marker-block" transform="rotate(180 1.5 1.5) scale(0.6,0.6)" stroke-width="1.6667" fill="black" stroke="none" style="-webkit-tap-highlight-color: rgba(0, 0, 0, 0);"></use></marker><marker id="raphael-marker-endblock33-obj38" markerHeight="3" markerWidth="3" orient="auto" refX="1.5" refY="1.5" style="-webkit-tap-highlight-color: rgba(0, 0, 0, 0);"><use xlink:href="#raphael-marker-block" transform="rotate(180 1.5 1.5) scale(0.6,0.6)" stroke-width="1.6667" fill="black" stroke="none" style="-webkit-tap-highlight-color: rgba(0, 0, 0, 0);"></use></marker><marker id="raphael-marker-endblock33-obj39" markerHeight="3" markerWidth="3" orient="auto" refX="1.5" refY="1.5" style="-webkit-tap-highlight-color: rgba(0, 0, 0, 0);"><use xlink:href="#raphael-marker-block" transform="rotate(180 1.5 1.5) scale(0.6,0.6)" stroke-width="1.6667" fill="black" stroke="none" style="-webkit-tap-highlight-color: rgba(0, 0, 0, 0);"></use></marker><marker id="raphael-marker-endblock33-obj40" markerHeight="3" markerWidth="3" orient="auto" refX="1.5" refY="1.5" style="-webkit-tap-highlight-color: rgba(0, 0, 0, 0);"><use xlink:href="#raphael-marker-block" transform="rotate(180 1.5 1.5) scale(0.6,0.6)" stroke-width="1.6667" fill="black" stroke="none" style="-webkit-tap-highlight-color: rgba(0, 0, 0, 0);"></use></marker><marker id="raphael-marker-endblock33-obj41" markerHeight="3" markerWidth="3" orient="auto" refX="1.5" refY="1.5" style="-webkit-tap-highlight-color: rgba(0, 0, 0, 0);"><use xlink:href="#raphael-marker-block" transform="rotate(180 1.5 1.5) scale(0.6,0.6)" stroke-width="1.6667" fill="black" stroke="none" style="-webkit-tap-highlight-color: rgba(0, 0, 0, 0);"></use></marker><marker id="raphael-marker-endblock33-obj43" markerHeight="3" markerWidth="3" orient="auto" refX="1.5" refY="1.5" style="-webkit-tap-highlight-color: rgba(0, 0, 0, 0);"><use xlink:href="#raphael-marker-block" transform="rotate(180 1.5 1.5) scale(0.6,0.6)" stroke-width="1.6667" fill="black" stroke="none" style="-webkit-tap-highlight-color: rgba(0, 0, 0, 0);"></use></marker><marker id="raphael-marker-endblock33-obj45" markerHeight="3" markerWidth="3" orient="auto" refX="1.5" refY="1.5" style="-webkit-tap-highlight-color: rgba(0, 0, 0, 0);"><use xlink:href="#raphael-marker-block" transform="rotate(180 1.5 1.5) scale(0.6,0.6)" stroke-width="1.6667" fill="black" stroke="none" style="-webkit-tap-highlight-color: rgba(0, 0, 0, 0);"></use></marker><marker id="raphael-marker-endblock33-obj46" markerHeight="3" markerWidth="3" orient="auto" refX="1.5" refY="1.5" style="-webkit-tap-highlight-color: rgba(0, 0, 0, 0);"><use xlink:href="#raphael-marker-block" transform="rotate(180 1.5 1.5) scale(0.6,0.6)" stroke-width="1.6667" fill="black" stroke="none" style="-webkit-tap-highlight-color: rgba(0, 0, 0, 0);"></use></marker><marker id="raphael-marker-endblock33-obj47" markerHeight="3" markerWidth="3" orient="auto" refX="1.5" refY="1.5" style="-webkit-tap-highlight-color: rgba(0, 0, 0, 0);"><use xlink:href="#raphael-marker-block" transform="rotate(180 1.5 1.5) scale(0.6,0.6)" stroke-width="1.6667" fill="black" stroke="none" style="-webkit-tap-highlight-color: rgba(0, 0, 0, 0);"></use></marker><marker id="raphael-marker-endblock33-obj48" markerHeight="3" markerWidth="3" orient="auto" refX="1.5" refY="1.5" style="-webkit-tap-highlight-color: rgba(0, 0, 0, 0);"><use xlink:href="#raphael-marker-block" transform="rotate(180 1.5 1.5) scale(0.6,0.6)" stroke-width="1.6667" fill="black" stroke="none" style="-webkit-tap-highlight-color: rgba(0, 0, 0, 0);"></use></marker><marker id="raphael-marker-endblock33-obj49" markerHeight="3" markerWidth="3" orient="auto" refX="1.5" refY="1.5" style="-webkit-tap-highlight-color: rgba(0, 0, 0, 0);"><use xlink:href="#raphael-marker-block" transform="rotate(180 1.5 1.5) scale(0.6,0.6)" stroke-width="1.6667" fill="black" stroke="none" style="-webkit-tap-highlight-color: rgba(0, 0, 0, 0);"></use></marker></defs><rect x="0" y="0" width="49.5625" height="35.5" rx="20" ry="20" fill="#ffffff" stroke="#000000" style="-webkit-tap-highlight-color: rgba(0, 0, 0, 0);" stroke-width="3" class="flowchart" id="st" transform="matrix(1,0,0,1,142.9453,40.0703)"></rect><text x="10" y="17.75" text-anchor="start" font-family="&quot;Arial&quot;" font-size="14px" stroke="none" fill="#000000" style="-webkit-tap-highlight-color: rgba(0, 0, 0, 0); text-anchor: start; font-family: Arial; font-size: 14px;" id="stt" class="flowchartt" transform="matrix(1,0,0,1,142.9453,40.0703)" stroke-width="1"><tspan dy="4.75" style="-webkit-tap-highlight-color: rgba(0, 0, 0, 0);">Start</tspan></text><path fill="#ffffff" stroke="#000000" d="M10,17.75L0,35.5L165.296875,35.5L185.296875,0L20,0L10,17.75" stroke-width="3" id="io4" class="flowchart" style="-webkit-tap-highlight-color: rgba(0, 0, 0, 0);" transform="matrix(1,0,0,1,75.0781,165.6406)"></path><text x="30" y="17.75" text-anchor="start" font-family="&quot;Arial&quot;" font-size="14px" stroke="none" fill="#000000" style="-webkit-tap-highlight-color: rgba(0, 0, 0, 0); text-anchor: start; font-family: Arial; font-size: 14px;" id="io4t" class="flowchartt" transform="matrix(1,0,0,1,75.0781,165.6406)" stroke-width="1"><tspan dy="4.75" style="-webkit-tap-highlight-color: rgba(0, 0, 0, 0);">Enter the coded text</tspan></text><rect x="0" y="0" width="171.734375" height="52.296875" rx="0" ry="0" fill="#ffffff" stroke="#000000" style="-webkit-tap-highlight-color: rgba(0, 0, 0, 0);" stroke-width="3" class="flowchart" id="op6" transform="matrix(1,0,0,1,81.8594,282.8125)"></rect><text x="10" y="26.1484375" text-anchor="start" font-family="&quot;Arial&quot;" font-size="14px" stroke="none" fill="#000000" style="-webkit-tap-highlight-color: rgba(0, 0, 0, 0); text-anchor: start; font-family: Arial; font-size: 14px;" id="op6t" class="flowchartt" transform="matrix(1,0,0,1,81.8594,282.8125)" stroke-width="1"><tspan dy="-3.640625" style="-webkit-tap-highlight-color: rgba(0, 0, 0, 0);">From the coded text get </tspan><tspan dy="16.8" x="10" style="-webkit-tap-highlight-color: rgba(0, 0, 0, 0);">the words in to a list</tspan></text><rect x="0" y="0" width="150.734375" height="52.296875" rx="0" ry="0" fill="#ffffff" stroke="#000000" style="-webkit-tap-highlight-color: rgba(0, 0, 0, 0);" stroke-width="3" class="flowchart" id="op8" transform="matrix(1,0,0,1,92.3594,416.7813)"></rect><text x="10" y="26.1484375" text-anchor="start" font-family="&quot;Arial&quot;" font-size="14px" stroke="none" fill="#000000" style="-webkit-tap-highlight-color: rgba(0, 0, 0, 0); text-anchor: start; font-family: Arial; font-size: 14px;" id="op8t" class="flowchartt" transform="matrix(1,0,0,1,92.3594,416.7813)" stroke-width="1"><tspan dy="-3.640625" style="-webkit-tap-highlight-color: rgba(0, 0, 0, 0);">Initialize the variable </tspan><tspan dy="16.8" x="10" style="-webkit-tap-highlight-color: rgba(0, 0, 0, 0);">to store the plain text</tspan></text><path fill="#ffffff" stroke="#000000" d="M51.228515625,25.91015625L0,51.8203125L102.45703125,103.640625L204.9140625,51.8203125L102.45703125,0L0,51.8203125" stroke-width="3" id="cond11" class="flowchart" style="-webkit-tap-highlight-color: rgba(0, 0, 0, 0);" transform="matrix(1,0,0,1,65.2695,525.0781)"></path><text x="56.228515625" y="51.8203125" text-anchor="start" font-family="&quot;Arial&quot;" font-size="14px" stroke="none" fill="#000000" style="-webkit-tap-highlight-color: rgba(0, 0, 0, 0); text-anchor: start; font-family: Arial; font-size: 14px;" id="cond11t" class="flowchartt" transform="matrix(1,0,0,1,65.2695,525.0781)" stroke-width="1"><tspan dy="-12.0390625" style="-webkit-tap-highlight-color: rgba(0, 0, 0, 0);">Loop through </tspan><tspan dy="16.8" x="56.228515625" style="-webkit-tap-highlight-color: rgba(0, 0, 0, 0);">each word in the </tspan><tspan dy="16.8" x="56.228515625" style="-webkit-tap-highlight-color: rgba(0, 0, 0, 0);">word list</tspan></text><rect x="0" y="0" width="223.03125" height="52.296875" rx="0" ry="0" fill="#ffffff" stroke="#000000" style="-webkit-tap-highlight-color: rgba(0, 0, 0, 0);" stroke-width="3" class="flowchart" id="op42" transform="matrix(1,0,0,1,56.2109,710.3906)"></rect><text x="10" y="26.1484375" text-anchor="start" font-family="&quot;Arial&quot;" font-size="14px" stroke="none" fill="#000000" style="-webkit-tap-highlight-color: rgba(0, 0, 0, 0); text-anchor: start; font-family: Arial; font-size: 14px;" id="op42t" class="flowchartt" transform="matrix(1,0,0,1,56.2109,710.3906)" stroke-width="1"><tspan dy="-3.640625" style="-webkit-tap-highlight-color: rgba(0, 0, 0, 0);">Shift one bit to right</tspan><tspan dy="16.8" x="10" style="-webkit-tap-highlight-color: rgba(0, 0, 0, 0);">word = (word[(- 1)] + word[:(- 1)])</tspan></text><rect x="0" y="0" width="136.703125" height="52.296875" rx="0" ry="0" fill="#ffffff" stroke="#000000" style="-webkit-tap-highlight-color: rgba(0, 0, 0, 0);" stroke-width="3" class="flowchart" id="op44" transform="matrix(1,0,0,1,99.375,844.3594)"></rect><text x="10" y="26.1484375" text-anchor="start" font-family="&quot;Arial&quot;" font-size="14px" stroke="none" fill="#000000" style="-webkit-tap-highlight-color: rgba(0, 0, 0, 0); text-anchor: start; font-family: Arial; font-size: 14px;" id="op44t" class="flowchartt" transform="matrix(1,0,0,1,99.375,844.3594)" stroke-width="1"><tspan dy="-3.640625" style="-webkit-tap-highlight-color: rgba(0, 0, 0, 0);">Convert to decimal</tspan><tspan dy="16.8" x="10" style="-webkit-tap-highlight-color: rgba(0, 0, 0, 0);">decimal = 0</tspan></text><rect x="0" y="0" width="181.453125" height="35.5" rx="0" ry="0" fill="#ffffff" stroke="#000000" style="-webkit-tap-highlight-color: rgba(0, 0, 0, 0);" stroke-width="3" class="flowchart" id="op46" transform="matrix(1,0,0,1,77,986.7266)"></rect><text x="10" y="17.75" text-anchor="start" font-family="&quot;Arial&quot;" font-size="14px" stroke="none" fill="#000000" style="-webkit-tap-highlight-color: rgba(0, 0, 0, 0); text-anchor: start; font-family: Arial; font-size: 14px;" id="op46t" class="flowchartt" transform="matrix(1,0,0,1,77,986.7266)" stroke-width="1"><tspan dy="4.75" style="-webkit-tap-highlight-color: rgba(0, 0, 0, 0);">exponent = (len(word) - 1)</tspan></text><path fill="#ffffff" stroke="#000000" d="M46.845703125,23.4228515625L0,46.845703125L93.69140625,93.69140625L187.3828125,46.845703125L93.69140625,0L0,46.845703125" stroke-width="3" id="cond49" class="flowchart" style="-webkit-tap-highlight-color: rgba(0, 0, 0, 0);" transform="matrix(1,0,0,1,74.0352,1083.2012)"></path><text x="51.845703125" y="46.845703125" text-anchor="start" font-family="&quot;Arial&quot;" font-size="14px" stroke="none" fill="#000000" style="-webkit-tap-highlight-color: rgba(0, 0, 0, 0); text-anchor: start; font-family: Arial; font-size: 14px;" id="cond49t" class="flowchartt" transform="matrix(1,0,0,1,74.0352,1083.2012)" stroke-width="1"><tspan dy="4.751953125" style="-webkit-tap-highlight-color: rgba(0, 0, 0, 0);">for digit in word</tspan></text><rect x="0" y="0" width="323.453125" height="35.5" rx="0" ry="0" fill="#ffffff" stroke="#000000" style="-webkit-tap-highlight-color: rgba(0, 0, 0, 0);" stroke-width="3" class="flowchart" id="op58" transform="matrix(1,0,0,1,6,1266.9629)"></rect><text x="10" y="17.75" text-anchor="start" font-family="&quot;Arial&quot;" font-size="14px" stroke="none" fill="#000000" style="-webkit-tap-highlight-color: rgba(0, 0, 0, 0); text-anchor: start; font-family: Arial; font-size: 14px;" id="op58t" class="flowchartt" transform="matrix(1,0,0,1,6,1266.9629)" stroke-width="1"><tspan dy="4.75" style="-webkit-tap-highlight-color: rgba(0, 0, 0, 0);">decimal = (decimal + (int(digit) * (2 ** exponent)))</tspan></text><rect x="0" y="0" width="180.71875" height="35.5" rx="0" ry="0" fill="#ffffff" stroke="#000000" style="-webkit-tap-highlight-color: rgba(0, 0, 0, 0);" stroke-width="3" class="flowchart" id="op60" transform="matrix(1,0,0,1,77.3672,1392.5332)"></rect><text x="10" y="17.75" text-anchor="start" font-family="&quot;Arial&quot;" font-size="14px" stroke="none" fill="#000000" style="-webkit-tap-highlight-color: rgba(0, 0, 0, 0); text-anchor: start; font-family: Arial; font-size: 14px;" id="op60t" class="flowchartt" transform="matrix(1,0,0,1,77.3672,1392.5332)" stroke-width="1"><tspan dy="4.75" style="-webkit-tap-highlight-color: rgba(0, 0, 0, 0);">exponent = (exponent - 1)</tspan></text><rect x="0" y="0" width="96.640625" height="35.5" rx="0" ry="0" fill="#ffffff" stroke="#000000" style="-webkit-tap-highlight-color: rgba(0, 0, 0, 0);" stroke-width="3" class="flowchart" id="op64" transform="matrix(1,0,0,1,430.8242,1112.2969)"></rect><text x="10" y="17.75" text-anchor="start" font-family="&quot;Arial&quot;" font-size="14px" stroke="none" fill="#000000" style="-webkit-tap-highlight-color: rgba(0, 0, 0, 0); text-anchor: start; font-family: Arial; font-size: 14px;" id="op64t" class="flowchartt" transform="matrix(1,0,0,1,430.8242,1112.2969)" stroke-width="1"><tspan dy="4.75" style="-webkit-tap-highlight-color: rgba(0, 0, 0, 0);">decimal -= 1</tspan></text><rect x="0" y="0" width="176.390625" height="35.5" rx="0" ry="0" fill="#ffffff" stroke="#000000" style="-webkit-tap-highlight-color: rgba(0, 0, 0, 0);" stroke-width="3" class="flowchart" id="op66" transform="matrix(1,0,0,1,390.9492,1237.8672)"></rect><text x="10" y="17.75" text-anchor="start" font-family="&quot;Arial&quot;" font-size="14px" stroke="none" fill="#000000" style="-webkit-tap-highlight-color: rgba(0, 0, 0, 0); text-anchor: start; font-family: Arial; font-size: 14px;" id="op66t" class="flowchartt" transform="matrix(1,0,0,1,390.9492,1237.8672)" stroke-width="1"><tspan dy="4.75" style="-webkit-tap-highlight-color: rgba(0, 0, 0, 0);">plainText += chr(decimal)</tspan></text><path fill="#ffffff" stroke="#000000" d="M10,17.75L0,35.5L131.8125,35.5L151.8125,0L20,0L10,17.75" stroke-width="3" id="io70" class="flowchart" style="-webkit-tap-highlight-color: rgba(0, 0, 0, 0);" transform="matrix(1,0,0,1,577.4648,559.1484)"></path><text x="30" y="17.75" text-anchor="start" font-family="&quot;Arial&quot;" font-size="14px" stroke="none" fill="#000000" style="-webkit-tap-highlight-color: rgba(0, 0, 0, 0); text-anchor: start; font-family: Arial; font-size: 14px;" id="io70t" class="flowchartt" transform="matrix(1,0,0,1,577.4648,559.1484)" stroke-width="1"><tspan dy="4.75" style="-webkit-tap-highlight-color: rgba(0, 0, 0, 0);">print(plainText)</tspan><tspan dy="16.8" x="30" style="-webkit-tap-highlight-color: rgba(0, 0, 0, 0);"></tspan></text><rect x="0" y="0" width="44.90625" height="35.5" rx="20" ry="20" fill="#ffffff" stroke="#000000" style="-webkit-tap-highlight-color: rgba(0, 0, 0, 0);" stroke-width="3" class="flowchart" id="e" transform="matrix(1,0,0,1,630.918,684.7188)"></rect><text x="10" y="17.75" text-anchor="start" font-family="&quot;Arial&quot;" font-size="14px" stroke="none" fill="#000000" style="-webkit-tap-highlight-color: rgba(0, 0, 0, 0); text-anchor: start; font-family: Arial; font-size: 14px;" id="et" class="flowchartt" transform="matrix(1,0,0,1,630.918,684.7188)" stroke-width="1"><tspan dy="4.75" style="-webkit-tap-highlight-color: rgba(0, 0, 0, 0);">End</tspan></text><path fill="none" stroke="#000000" d="M167.7265625,75.5703125C167.7265625,75.5703125,167.7265625,142.92361378856003,167.7265625,161.14320798478184" stroke-width="3" marker-end="url(#raphael-marker-endblock33-obj30)" style="-webkit-tap-highlight-color: rgba(0, 0, 0, 0);"></path><path fill="none" stroke="#000000" d="M167.7265625,201.140625C167.7265625,201.140625,167.7265625,261.18352288007736,167.7265625,278.3051304786932" stroke-width="3" marker-end="url(#raphael-marker-endblock33-obj31)" style="-webkit-tap-highlight-color: rgba(0, 0, 0, 0);"></path><path fill="none" stroke="#000000" d="M167.7265625,335.109375C167.7265625,335.109375,167.7265625,395.15227288007736,167.7265625,412.2738804786932" stroke-width="3" marker-end="url(#raphael-marker-endblock33-obj32)" style="-webkit-tap-highlight-color: rgba(0, 0, 0, 0);"></path><path fill="none" stroke="#000000" d="M167.7265625,469.078125C167.7265625,469.078125,167.7265625,507.27889585494995,167.7265625,520.5782853176352" stroke-width="3" marker-end="url(#raphael-marker-endblock33-obj33)" style="-webkit-tap-highlight-color: rgba(0, 0, 0, 0);"></path><path fill="none" stroke="#000000" d="M167.7265625,628.71875C167.7265625,628.71875,167.7265625,688.7616478800774,167.7265625,705.8832554786932" stroke-width="3" marker-end="url(#raphael-marker-endblock33-obj34)" style="-webkit-tap-highlight-color: rgba(0, 0, 0, 0);"></path><text x="172.7265625" y="638.71875" text-anchor="start" font-family="&quot;Arial&quot;" font-size="14px" stroke="none" fill="#000000" style="-webkit-tap-highlight-color: rgba(0, 0, 0, 0); text-anchor: start; font-family: Arial; font-size: 14px;" stroke-width="1"><tspan dy="4.75" style="-webkit-tap-highlight-color: rgba(0, 0, 0, 0);">yes</tspan></text><path fill="none" stroke="#000000" d="M270.18359375,576.8984375C270.18359375,576.8984375,544.3437481117435,576.8984375,582.9644534502996,576.8984375" stroke-width="3" marker-end="url(#raphael-marker-endblock33-obj36)" style="-webkit-tap-highlight-color: rgba(0, 0, 0, 0);"></path><text x="275.18359375" y="566.8984375" text-anchor="start" font-family="&quot;Arial&quot;" font-size="14px" stroke="none" fill="#000000" style="-webkit-tap-highlight-color: rgba(0, 0, 0, 0); text-anchor: start; font-family: Arial; font-size: 14px;" stroke-width="1"><tspan dy="4.7578125" style="-webkit-tap-highlight-color: rgba(0, 0, 0, 0);">no</tspan></text><path fill="none" stroke="#000000" d="M167.7265625,762.6875C167.7265625,762.6875,167.7265625,822.7303978800774,167.7265625,839.8520054786932" stroke-width="3" marker-end="url(#raphael-marker-endblock33-obj38)" style="-webkit-tap-highlight-color: rgba(0, 0, 0, 0);"></path><path fill="none" stroke="#000000" d="M167.7265625,896.65625C167.7265625,896.65625,167.7265625,964.00955128856,167.7265625,982.2291454847818" stroke-width="3" marker-end="url(#raphael-marker-endblock33-obj39)" style="-webkit-tap-highlight-color: rgba(0, 0, 0, 0);"></path><path fill="none" stroke="#000000" d="M167.7265625,1022.2265625C167.7265625,1022.2265625,167.7265625,1064.5865832692944,167.7265625,1078.6928011231316" stroke-width="3" marker-end="url(#raphael-marker-endblock33-obj40)" style="-webkit-tap-highlight-color: rgba(0, 0, 0, 0);"></path><path fill="none" stroke="#000000" d="M167.7265625,1176.892578125C167.7265625,1176.892578125,167.7265625,1244.24587941356,167.7265625,1262.4654736097818" stroke-width="3" marker-end="url(#raphael-marker-endblock33-obj41)" style="-webkit-tap-highlight-color: rgba(0, 0, 0, 0);"></path><text x="172.7265625" y="1186.892578125" text-anchor="start" font-family="&quot;Arial&quot;" font-size="14px" stroke="none" fill="#000000" style="-webkit-tap-highlight-color: rgba(0, 0, 0, 0); text-anchor: start; font-family: Arial; font-size: 14px;" stroke-width="1"><tspan dy="4.751953125" style="-webkit-tap-highlight-color: rgba(0, 0, 0, 0);">yes</tspan></text><path fill="none" stroke="#000000" d="M261.41796875,1130.046875C261.41796875,1130.046875,399.42729451693594,1130.046875,426.3148535896935,1130.046875" stroke-width="3" marker-end="url(#raphael-marker-endblock33-obj43)" style="-webkit-tap-highlight-color: rgba(0, 0, 0, 0);"></path><text x="266.41796875" y="1120.046875" text-anchor="start" font-family="&quot;Arial&quot;" font-size="14px" stroke="none" fill="#000000" style="-webkit-tap-highlight-color: rgba(0, 0, 0, 0); text-anchor: start; font-family: Arial; font-size: 14px;" stroke-width="1"><tspan dy="4.75" style="-webkit-tap-highlight-color: rgba(0, 0, 0, 0);">no</tspan></text><path fill="none" stroke="#000000" d="M167.7265625,1302.462890625C167.7265625,1302.462890625,167.7265625,1369.81619191356,167.7265625,1388.0357861097818" stroke-width="3" marker-end="url(#raphael-marker-endblock33-obj45)" style="-webkit-tap-highlight-color: rgba(0, 0, 0, 0);"></path><path fill="none" stroke="#000000" d="M77.3671875,1410.283203125C77.3671875,1410.283203125,49.03515625,1410.283203125,49.03515625,1410.283203125C49.03515625,1410.283203125,49.03515625,1058.201171875,49.03515625,1058.201171875C49.03515625,1058.201171875,167.7265625,1058.201171875,167.7265625,1058.201171875C167.7265625,1058.201171875,167.7265625,1071.5051431655884,167.7265625,1078.702799508348" stroke-width="3" marker-end="url(#raphael-marker-endblock33-obj46)" style="-webkit-tap-highlight-color: rgba(0, 0, 0, 0);"></path><path fill="none" stroke="#000000" d="M479.14453125,1147.796875C479.14453125,1147.796875,479.14453125,1215.15017628856,479.14453125,1233.3697704847818" stroke-width="3" marker-end="url(#raphael-marker-endblock33-obj47)" style="-webkit-tap-highlight-color: rgba(0, 0, 0, 0);"></path><path fill="none" stroke="#000000" d="M390.94921875,1255.6171875C390.94921875,1255.6171875,279.337890625,1255.6171875,279.337890625,1255.6171875C279.337890625,1255.6171875,279.337890625,1136.046875,279.337890625,1136.046875C279.337890625,1136.046875,291.337890625,1130.046875,279.337890625,1124.046875C279.337890625,1124.046875,279.337890625,582.8984375,279.337890625,582.8984375C279.337890625,582.8984375,291.337890625,576.8984375,279.337890625,570.8984375C279.337890625,570.8984375,279.337890625,500.078125,279.337890625,500.078125C279.337890625,500.078125,167.7265625,500.078125,167.7265625,500.078125C167.7265625,500.078125,167.7265625,513.3820962905884,167.7265625,520.5797526333481" stroke-width="3" marker-end="url(#raphael-marker-endblock33-obj48)" style="-webkit-tap-highlight-color: rgba(0, 0, 0, 0);"></path><path fill="none" stroke="#000000" d="M653.37109375,594.6484375C653.37109375,594.6484375,653.37109375,662.00173878856,653.37109375,680.2213329847818" stroke-width="3" marker-end="url(#raphael-marker-endblock33-obj49)" style="-webkit-tap-highlight-color: rgba(0, 0, 0, 0);"></path></svg>